HIERARCHY
ROOT Hips
{
	OFFSET 0.00000 0.00000 0.00000
	CHANNELS 6 Xposition Yposition Zposition Zrotation Yrotation Xrotation 
	JOINT LHipJoint
	{
		OFFSET 0 0 0
		CHANNELS 3 Zrotation Yrotation Xrotation
		JOINT LeftUpLeg
		{
			OFFSET 1.26600 -1.82114 0.91038
			CHANNELS 3 Zrotation Yrotation Xrotation
			JOINT LeftLeg
			{
				OFFSET 2.50076 -6.87080 0.00000
				CHANNELS 3 Zrotation Yrotation Xrotation
				JOINT LeftFoot
				{
					OFFSET 2.57364 -7.07102 0.00000
					CHANNELS 3 Zrotation Yrotation Xrotation
					JOINT LeftToeBase
					{
						OFFSET 0.13572 -0.37290 1.97004
						CHANNELS 3 Zrotation Yrotation Xrotation
						End Site
						{
							OFFSET 0.00000 -0.00000 1.01383
						}
					}
				}
			}
		}
	}
	JOINT RHipJoint
	{
		OFFSET 0 0 0
		CHANNELS 3 Zrotation Yrotation Xrotation
		JOINT RightUpLeg
		{
			OFFSET -1.20803 -1.82114 0.91038
			CHANNELS 3 Zrotation Yrotation Xrotation
			JOINT RightLeg
			{
				OFFSET -2.54916 -7.00377 0.00000
				CHANNELS 3 Zrotation Yrotation Xrotation
				JOINT RightFoot
				{
					OFFSET -2.56374 -7.04382 0.00000
					CHANNELS 3 Zrotation Yrotation Xrotation
					JOINT RightToeBase
					{
						OFFSET -0.23520 -0.64621 2.09921
						CHANNELS 3 Zrotation Yrotation Xrotation
						End Site
						{
							OFFSET -0.00000 -0.00000 1.10065
						}
					}
				}
			}
		}
	}
	JOINT LowerBack
	{
		OFFSET 0 0 0
		CHANNELS 3 Zrotation Yrotation Xrotation
		JOINT Spine
		{
			OFFSET 0.05492 2.10797 -0.12074
			CHANNELS 3 Zrotation Yrotation Xrotation
			JOINT Spine1
			{
				OFFSET 0.04577 2.11592 -0.04483
				CHANNELS 3 Zrotation Yrotation Xrotation
				JOINT Neck
				{
					OFFSET 0 0 0
					CHANNELS 3 Zrotation Yrotation Xrotation
					JOINT Neck1
					{
						OFFSET -0.10759 1.80167 0.15770
						CHANNELS 3 Zrotation Yrotation Xrotation
						JOINT Head
						{
							OFFSET 0.09237 1.77509 -0.40848
							CHANNELS 3 Zrotation Yrotation Xrotation
							End Site
							{
								OFFSET 0.03805 1.84093 -0.15754
							}
						}
					}
				}
				JOINT LeftShoulder
				{
					OFFSET 0 0 0
					CHANNELS 3 Zrotation Yrotation Xrotation
					JOINT LeftArm
					{
						OFFSET 3.42372 1.09575 -0.28209
						CHANNELS 3 Zrotation Yrotation Xrotation
						JOINT LeftForeArm
						{
							OFFSET 4.95681 -0.00000 0.00000
							CHANNELS 3 Zrotation Yrotation Xrotation
							JOINT LeftHand
							{
								OFFSET 3.40915 -0.00000 0.00000
								CHANNELS 3 Zrotation Yrotation Xrotation
								JOINT LeftFingerBase
								{
									OFFSET 0 0 0
									CHANNELS 3 Zrotation Yrotation Xrotation
									JOINT LeftHandIndex1
									{
										OFFSET 0.61640 -0.00000 0.00000
										CHANNELS 3 Zrotation Yrotation Xrotation
										End Site
										{
											OFFSET 0.49696 -0.00000 0.00000
										}
									}
								}
								JOINT LThumb
								{
									OFFSET 0 0 0
									CHANNELS 3 Zrotation Yrotation Xrotation
									End Site
									{
										OFFSET 0.50455 -0.00000 0.50455
									}
								}
							}
						}
					}
				}
				JOINT RightShoulder
				{
					OFFSET 0 0 0
					CHANNELS 3 Zrotation Yrotation Xrotation
					JOINT RightArm
					{
						OFFSET -3.24731 1.15872 -0.32221
						CHANNELS 3 Zrotation Yrotation Xrotation
						JOINT RightForeArm
						{
							OFFSET -5.35200 -0.00000 0.00000
							CHANNELS 3 Zrotation Yrotation Xrotation
							JOINT RightHand
							{
								OFFSET -3.43721 -0.00000 -0.00000
								CHANNELS 3 Zrotation Yrotation Xrotation
								JOINT RightFingerBase
								{
									OFFSET 0 0 0
									CHANNELS 3 Zrotation Yrotation Xrotation
									JOINT RightHandIndex1
									{
										OFFSET -0.72009 -0.00000 0.00000
										CHANNELS 3 Zrotation Yrotation Xrotation
										End Site
										{
											OFFSET -0.58056 -0.00000 0.00000
										}
									}
								}
								JOINT RThumb
								{
									OFFSET 0 0 0
									CHANNELS 3 Zrotation Yrotation Xrotation
									End Site
									{
										OFFSET -0.58942 -0.00000 0.58942
									}
								}
							}
						}
					}
				}
			}
		}
	}
}
MOTION
Frames: 13
Frame Time: .0083333
13.0766 21.0515 10.3054 -240.0950 -261.1920 842.1680 0.0000 0.0000 0.0000 -6.2924 -10.1210 -54.5166 15.0381 19.3992 75.3515 -0.2134 -19.8208 -12.0890 0.4674 4.3850 12.1623 0.0000 0.0000 0.0000 25.8788 0.1754 3.7265 -1.6135 -8.0098 22.7439 -2.5792 -12.3457 28.9924 -0.6009 -4.9623 13.8012 7.3460 1.9013 16.2756 2.5504 4.1314 2.7037 -2.2942 1.9713 -5.8984 -11.4901 -3.4744 -16.2056 9.2679 -3.6887 32.2578 5.2579 -1.4556 14.1402 0.0000 0.0000 0.0000 -86.5998 4.8483 27.2684 17.8132 -27.9174 -4.4615 -0.0000 0.0000 -2.0793 16.1273 19.3335 5.4682 -7.1250 0.0000 -0.0000 -12.0050 49.6614 -1.3976 0.0000 0.0000 0.0000 83.9834 1.5233 24.7713 -16.7007 26.4615 -3.9530 0.0000 -0.0000 -11.6587 -21.9298 10.0660 -4.0251 7.1250 -0.0000 -0.0000 3.6055 -19.1582 2.2269
13.1553 21.2006 10.2983 -240.4130 -261.6420 841.9740 0.0000 0.0000 0.0000 -7.0020 -10.5911 -53.1156 14.4672 19.2497 73.6263 -0.1642 -19.2344 -12.0681 0.4965 4.5177 12.5379 0.0000 0.0000 0.0000 25.4410 0.2159 2.0991 -2.0279 -8.9239 25.5576 -2.5139 -12.4106 28.6274 -1.0869 -6.6259 18.6116 6.8616 1.8156 16.1489 2.5601 3.9219 2.6830 -1.9676 1.8770 -5.9031 -11.5719 -3.4906 -16.2926 9.3000 -3.6918 32.3022 5.2890 -1.4631 14.1833 0.0000 0.0000 0.0000 -86.5298 4.6221 27.5220 17.9855 -28.1386 -4.5424 -0.0000 0.0000 -2.0266 16.6968 19.1878 5.6303 -7.1250 0.0000 -0.0000 -11.4103 49.6025 -1.3101 0.0000 0.0000 0.0000 83.9138 1.4041 24.6632 -16.4831 26.1713 -3.8566 0.0000 -0.0000 -10.9646 -22.0929 10.1195 -4.0794 7.1250 -0.0000 -0.0000 3.4911 -19.0879 2.1615
13.2352 21.3387 10.2810 -240.6770 -261.8680 841.6330 0.0000 0.0000 0.0000 -7.5708 -10.7428 -51.5884 13.9257 19.0914 71.9775 -0.1589 -18.8983 -11.8504 0.5768 4.8636 13.5199 0.0000 0.0000 0.0000 25.1211 0.1512 0.6825 -2.4896 -9.8189 28.3922 -2.5082 -12.2081 28.5804 -0.8204 -5.7793 16.1455 6.8016 1.8068 16.1934 2.4924 3.8967 2.7364 -2.0018 1.8678 -5.8709 -11.4429 -3.6037 -16.3221 9.3464 -3.9178 32.1887 5.2409 -1.5389 14.1688 0.0000 -0.0000 0.0000 -86.2887 4.3105 27.6747 18.2278 -28.4479 -4.6573 -0.0000 0.0000 -2.3104 15.7483 18.8140 5.1964 -7.1250 0.0000 -0.0000 -12.1848 49.0836 -1.2439 0.0000 -0.0000 0.0000 84.0446 1.3269 23.9482 -16.2878 25.9093 -3.7708 0.0000 -0.0000 -10.3458 -21.9274 10.2473 -4.0961 7.1250 -0.0000 -0.0000 3.6122 -18.9644 2.2467
13.3105 21.4683 10.2671 -240.9370 -261.9510 841.2560 0.0000 0.0000 0.0000 -7.9968 -10.5499 -50.2226 13.4121 18.9259 70.4007 -0.1929 -18.8396 -11.4809 0.6016 4.9651 13.8092 0.0000 0.0000 0.0000 24.9349 0.2462 -0.7220 -3.0261 -10.7371 31.3983 -2.4285 -12.7029 28.1622 -0.0570 -1.5410 4.2387 6.8294 1.8120 16.3036 2.4685 3.9163 2.7767 -2.0509 1.8778 -5.8825 -11.2748 -3.6832 -16.2732 9.3263 -4.0906 32.0371 5.1633 -1.5964 14.1091 0.0000 -0.0000 0.0000 -86.1549 4.0091 27.4967 18.4331 -28.7082 -4.7554 -0.0000 0.0000 -1.9962 14.6130 18.5582 4.7435 -7.1250 0.0000 -0.0000 -13.1674 48.6612 -1.2083 0.0000 -0.0000 0.0000 84.2267 1.2409 22.9079 -16.0956 25.6501 -3.6872 0.0000 -0.0000 -9.6629 -21.6602 10.4069 -4.1033 7.1250 -0.0000 -0.0000 3.8059 -18.8153 2.3803
13.3811 21.5928 10.2552 -240.5320 -262.2640 841.6910 0.0000 0.0000 0.0000 -8.6907 -10.3400 -49.0962 12.9051 18.7476 68.8304 -0.2323 -18.8066 -11.0718 0.6644 5.2131 14.5172 0.0000 0.0000 0.0000 24.4745 0.3488 -2.3418 -3.6283 -11.6486 34.5001 -2.3402 -13.0743 27.6872 -0.4835 -4.4590 12.3718 6.5746 1.7997 16.3137 2.4230 3.8531 2.7160 -1.9468 1.8453 -5.9717 -11.1069 -3.7014 -16.2696 9.1922 -4.1260 32.0810 5.0734 -1.6081 14.1246 -0.0000 -0.0000 0.0000 -86.0592 3.8245 27.4677 18.6355 -28.9632 -4.8531 -0.0000 0.0000 -1.9186 15.0391 18.5278 4.8799 -7.1250 0.0000 -0.0000 -12.7561 48.6929 -1.1795 -0.0000 -0.0000 0.0000 84.4037 1.0955 21.9415 -15.8988 25.3832 -3.6025 0.0000 -0.0000 -9.0884 -21.6936 10.5844 -4.1793 7.1250 -0.0000 -0.0000 3.7873 -18.6229 2.3848
13.4519 21.7225 10.2383 -237.7660 -262.8980 844.5580 0.0000 0.0000 0.0000 -9.9135 -10.2334 -47.9114 12.3746 18.5446 67.1715 -0.1998 -18.4215 -11.0711 0.6630 5.2074 14.5011 0.0000 0.0000 0.0000 23.5224 0.5432 -3.9599 -4.2826 -12.5273 37.6237 -2.3042 -12.6448 27.4355 -0.5150 -4.5997 12.7703 5.9400 1.8337 16.2411 2.2353 3.7633 2.6002 -1.7732 1.8016 -6.0902 -11.0126 -3.6932 -16.1700 9.2013 -4.1534 32.1198 5.0580 -1.6068 14.1204 -0.0000 -0.0000 0.0000 -85.9800 3.8200 27.3611 18.9560 -29.3640 -5.0093 -0.0000 0.0000 -2.0276 15.5045 18.5028 5.0311 -7.1250 0.0000 -0.0000 -12.3090 48.7360 -1.1502 -0.0000 -0.0000 0.0000 84.5986 0.9475 21.0707 -15.6977 25.1090 -3.5167 0.0000 -0.0000 -8.5900 -22.1115 10.7525 -4.3348 7.1250 -0.0000 -0.0000 3.4973 -18.4084 2.2180
13.5229 21.8511 10.2287 -236.7070 -263.2100 845.5800 0.0000 0.0000 0.0000 -10.6571 -10.1575 -46.5647 11.8436 18.3237 65.4921 -0.1739 -18.0160 -10.9967 0.5985 4.9525 13.7733 0.0000 0.0000 0.0000 23.0357 0.6971 -5.3820 -4.9783 -13.3594 40.7291 -2.2475 -12.1461 27.0568 -0.3544 -3.8249 10.5844 5.6109 1.8183 16.2423 2.1877 3.6815 2.5435 -1.6248 1.7627 -6.1745 -11.0498 -3.7218 -16.0261 9.2394 -4.2111 32.0233 5.0645 -1.6333 14.0553 -0.0000 -0.0000 0.0000 -86.0033 3.8215 26.8643 19.3580 -29.8611 -5.2079 -0.0000 0.0000 -2.0940 15.5132 18.5544 5.0476 -7.1250 0.0000 -0.0000 -12.3182 48.7890 -1.1674 -0.0000 -0.0000 0.0000 84.7077 0.7509 20.3515 -15.5789 24.9464 -3.4665 0.0000 -0.0000 -8.2266 -22.4956 10.6199 -4.3644 7.1250 -0.0000 -0.0000 3.2217 -18.5180 2.0349
13.5946 21.9803 10.2244 -236.2690 -263.4450 845.9640 0.0000 0.0000 0.0000 -11.1848 -10.2765 -45.1494 11.3147 18.0857 63.7993 -0.1747 -17.6238 -10.6695 0.6752 5.2543 14.6353 0.0000 0.0000 0.0000 22.6769 0.7503 -6.8319 -5.6970 -14.1282 43.7533 -2.1590 -11.9557 26.5088 -0.3712 -3.9132 10.8326 5.3030 1.7731 16.1532 2.2214 3.5632 2.5674 -1.3883 1.7138 -6.1287 -11.2178 -3.7668 -16.0638 9.2297 -4.2242 31.9464 5.0831 -1.6629 14.0370 0.0000 0.0000 0.0000 -86.0962 3.6873 26.2992 19.8003 -30.4010 -5.4299 -0.0000 0.0000 -2.5791 15.7112 18.7542 5.1677 -7.1250 0.0000 -0.0000 -12.1993 49.0180 -1.2254 0.0000 0.0000 0.0000 84.6808 0.5798 19.8793 -15.5248 24.8722 -3.4437 0.0000 -0.0000 -8.0694 -22.3559 10.3660 -4.2323 7.1250 -0.0000 -0.0000 3.3121 -18.8024 2.0713
13.6631 22.1088 10.2152 -232.9100 -263.9370 849.2370 0.0000 0.0000 0.0000 -12.1213 -10.4162 -43.6497 10.7873 17.8294 62.0888 -0.1945 -17.3267 -10.2156 0.9663 6.2588 17.5371 0.0000 0.0000 0.0000 21.8570 0.8390 -8.1989 -6.4453 -14.8464 46.7438 -2.0022 -12.0668 25.5554 -0.4241 -4.1797 11.5826 4.6841 1.7876 16.0783 2.1114 3.4573 2.6268 -1.1323 1.6756 -6.0595 -11.3716 -3.7563 -16.2191 9.3598 -4.1933 31.9617 5.1723 -1.6508 14.0821 0.0000 -0.0000 0.0000 -86.1886 3.5089 25.8011 20.2531 -30.9461 -5.6609 -0.0000 0.0000 -3.1820 15.7300 18.8651 5.2036 -7.1250 0.0000 -0.0000 -12.2199 49.1320 -1.2623 0.0000 -0.0000 0.0000 84.7352 0.5716 19.3112 -15.4275 24.7383 -3.4028 0.0000 -0.0000 -8.2351 -22.0862 10.2229 -4.1191 7.1250 -0.0000 -0.0000 3.4989 -18.9777 2.1749
13.7266 22.2244 10.2084 -230.8610 -264.1760 851.0850 0.0000 0.0000 0.0000 -12.7508 -10.3805 -42.1433 10.2823 17.5656 60.4279 -0.2047 -17.0424 -9.8665 1.0986 6.6602 18.7126 0.0000 0.0000 0.0000 21.3704 0.8733 -9.3937 -7.2313 -15.5236 49.7438 -1.8104 -11.5435 24.2797 -0.3682 -3.8976 10.7887 4.3789 1.8121 16.1987 2.0297 3.4369 2.6601 -1.0481 1.6702 -6.1031 -11.1046 -3.7264 -16.3161 9.2881 -4.2036 31.9699 5.0935 -1.6305 14.0981 -0.0000 0.0000 0.0000 -86.1548 3.3912 25.5288 20.6858 -31.4597 -5.8851 -0.0000 0.0000 -4.0347 16.4701 18.7954 5.4412 -7.1250 0.0000 -0.0000 -11.4933 49.1730 -1.1971 -0.0000 0.0000 0.0000 84.9994 0.5815 18.2787 -15.3008 24.5635 -3.3500 0.0000 -0.0000 -8.3515 -22.3946 10.1713 -4.1619 7.1250 -0.0000 -0.0000 3.2784 -19.0082 2.0352
13.7854 22.3359 10.2080 -231.0720 -264.2080 850.6600 0.0000 0.0000 0.0000 -13.0440 -10.3287 -40.7032 9.7849 17.2871 58.7671 -0.1488 -16.4271 -9.9691 0.8202 5.7786 16.1435 0.0000 0.0000 0.0000 21.3041 0.9514 -10.6113 -8.0559 -16.1602 52.7637 -1.5976 -10.6260 22.7580 -0.3310 -3.6973 10.2266 4.3721 1.8093 16.4082 1.9849 3.4427 2.6332 -1.1026 1.6686 -6.2435 -10.7148 -3.7445 -16.2474 9.1510 -4.3165 31.8814 4.9413 -1.6500 14.0428 0.0000 0.0000 0.0000 -85.9621 3.3395 25.5154 21.1300 -31.9798 -6.1187 -0.0000 0.0000 -5.1821 17.9725 18.6103 5.9103 -7.1250 0.0000 -0.0000 -10.0007 49.2125 -1.0484 0.0000 0.0000 0.0000 85.3481 0.3969 17.3782 -15.2603 24.5074 -3.3332 0.0000 -0.0000 -8.6648 -23.0480 10.2437 -4.3269 7.1250 -0.0000 -0.0000 2.8175 -18.8761 1.7566
13.8470 22.4494 10.2071 -231.4380 -264.2630 850.0790 0.0000 0.0000 0.0000 -13.3653 -10.2053 -39.2457 9.2847 16.9875 57.0696 -0.1086 -15.9088 -10.0015 0.6245 5.0571 14.0714 0.0000 0.0000 0.0000 21.2446 1.0088 -11.7988 -8.9048 -16.7461 55.7603 -1.3373 -9.9610 20.8125 -0.2584 -3.2703 9.0321 4.3052 1.7285 16.5475 2.0040 3.3361 2.6044 -1.0292 1.6151 -6.3603 -10.6189 -3.7139 -16.0492 9.0839 -4.2980 31.7530 4.8904 -1.6422 13.9341 0.0000 0.0000 0.0000 -85.9110 3.3849 25.2643 21.6285 -32.5546 -6.3848 -0.0000 0.0000 -6.1064 18.9964 18.6858 6.2939 -7.1250 0.0000 -0.0000 -9.0428 49.4467 -0.9988 0.0000 0.0000 0.0000 85.5341 0.2599 16.7196 -15.1536 24.3596 -3.2890 0.0000 -0.0000 -9.0480 -23.2677 10.4310 -4.4516 7.1250 -0.0000 -0.0000 2.6689 -18.6552 1.6768
13.9166 22.5612 10.2002 -229.6390 -264.4850 851.7080 0.0000 0.0000 0.0000 -14.0017 -10.0502 -37.7395 8.7812 16.6648 55.3303 -0.1162 -15.5920 -9.6642 0.6863 5.2964 14.7559 0.0000 0.0000 0.0000 20.8179 0.9838 -12.9733 -9.7615 -17.2735 58.6883 -1.0863 -8.6808 18.7009 -0.1958 -2.8492 7.8592 3.9538 1.6619 16.5157 2.0332 3.1859 2.5877 -0.7683 1.5487 -6.3883 -10.6055 -3.6390 -15.9229 8.8947 -4.1423 31.7086 4.8311 -1.6003 13.8605 -0.0000 0.0000 0.0000 -86.0583 3.4266 24.7280 22.1046 -33.0950 -6.6428 -0.0000 0.0000 -6.7595 19.8033 19.1966 6.7524 -7.1250 0.0000 -0.0000 -8.4198 50.0991 -1.0649 -0.0000 0.0000 0.0000 85.6070 0.3074 15.7092 -14.9187 24.0328 -3.1928 0.0000 -0.0000 -8.7531 -23.3613 10.6919 -4.5817 7.1250 -0.0000 -0.0000 2.6133 -18.3651 1.6585
